<?xml version="1.0" encoding="UTF-8" standalone="no"?>
<!-- Created with Inkscape (http://www.inkscape.org/) -->

<svg
   width="1366"
   height="768"
   viewBox="0 0 1366 768"
   version="1.1"
   id="svg1"
   xml:space="preserve"
   sodipodi:docname="background_home_dark.svg"
   inkscape:version="1.4.2 (f4327f4, 2025-05-13)"
   xmlns:inkscape="http://www.inkscape.org/namespaces/inkscape"
   xmlns:sodipodi="http://sodipodi.sourceforge.net/DTD/sodipodi-0.dtd"
   xmlns:xlink="http://www.w3.org/1999/xlink"
   xmlns="http://www.w3.org/2000/svg"
   xmlns:svg="http://www.w3.org/2000/svg"><sodipodi:namedview
     id="namedview1"
     pagecolor="#ffffff"
     bordercolor="#999999"
     borderopacity="1"
     inkscape:showpageshadow="2"
     inkscape:pageopacity="0"
     inkscape:pagecheckerboard="0"
     inkscape:deskcolor="#d1d1d1"
     inkscape:zoom="0.73567708"
     inkscape:cx="682.3646"
     inkscape:cy="384"
     inkscape:window-width="1366"
     inkscape:window-height="745"
     inkscape:window-x="-8"
     inkscape:window-y="-8"
     inkscape:window-maximized="1"
     inkscape:current-layer="svg1" /><defs
     id="defs1"><linearGradient
       id="linearGradient41"><stop
         style="stop-color:#132639;stop-opacity:1;"
         offset="0"
         id="stop40" /><stop
         style="stop-color:#050e1a;stop-opacity:0.41489363;"
         offset="1"
         id="stop41" /></linearGradient><linearGradient
       id="linearGradient39"><stop
         style="stop-color:#132639;stop-opacity:1;"
         offset="0"
         id="stop38" /><stop
         style="stop-color:#050e1a;stop-opacity:0;"
         offset="1"
         id="stop39" /></linearGradient><linearGradient
       id="linearGradient37"><stop
         style="stop-color:#132639;stop-opacity:1;"
         offset="0"
         id="stop36" /><stop
         style="stop-color:#050e1a;stop-opacity:0.75;"
         offset="1"
         id="stop37" /></linearGradient><linearGradient
       id="linearGradient35"><stop
         style="stop-color:#132639;stop-opacity:1;"
         offset="0"
         id="stop34" /><stop
         style="stop-color:#050e1a;stop-opacity:0.46276596;"
         offset="1"
         id="stop35" /></linearGradient><linearGradient
       id="linearGradient33"><stop
         style="stop-color:#132639;stop-opacity:1;"
         offset="0"
         id="stop32" /><stop
         style="stop-color:#050e1a;stop-opacity:0;"
         offset="1"
         id="stop33" /></linearGradient><linearGradient
       id="linearGradient31"><stop
         style="stop-color:#132639;stop-opacity:1;"
         offset="0"
         id="stop30" /><stop
         style="stop-color:#050e1a;stop-opacity:0.72872341;"
         offset="1"
         id="stop31" /></linearGradient><linearGradient
       id="linearGradient28"><stop
         style="stop-color:#132639;stop-opacity:1;"
         offset="0"
         id="stop27" /><stop
         style="stop-color:#050e1a;stop-opacity:0.59574467;"
         offset="1"
         id="stop28" /></linearGradient><linearGradient
       id="linearGradient26"><stop
         style="stop-color:#050d18;stop-opacity:1;"
         offset="0"
         id="stop25" /><stop
         style="stop-color:#060f1b;stop-opacity:1;"
         offset="1"
         id="stop26" /></linearGradient><linearGradient
       id="linearGradient7-6"
       gradientTransform="matrix(1.5591805,0,0,0.64136255,2.8320313e-5,868)"
       x1="518.3241"
       y1="559.99817"
       x2="593.90173"
       y2="997.25812"
       gradientUnits="userSpaceOnUse"><stop
         style="stop-color:#132639;stop-opacity:1;"
         offset="0"
         id="stop5" /><stop
         style="stop-color:#050e1a;stop-opacity:0.54255319;"
         offset="1"
         id="stop6" /></linearGradient><linearGradient
       id="linearGradient8-3"
       gradientTransform="matrix(1.7799091,0,0,0.56182645,2.8320313e-5,868)"
       x1="448.73618"
       y1="935.10199"
       x2="665.73096"
       y2="1532.6083"
       gradientUnits="userSpaceOnUse"><stop
         style="stop-color:#132639;stop-opacity:1;"
         offset="0"
         id="stop7" /><stop
         style="stop-color:#050e1a;stop-opacity:0.18085106;"
         offset="1"
         id="stop8" /></linearGradient><linearGradient
       xlink:href="#linearGradient37"
       id="linearGradient18"
       gradientUnits="userSpaceOnUse"
       gradientTransform="translate(6.0000283,868)"
       x1="516.75"
       y1="179.60114"
       x2="516.75"
       y2="287" /><linearGradient
       xlink:href="#linearGradient31"
       id="linearGradient19"
       gradientUnits="userSpaceOnUse"
       gradientTransform="matrix(-0.99611765,0,0,1.0423448,1388.6014,963.69272)"
       x1="516.75"
       y1="179.60114"
       x2="516.75"
       y2="287" /><linearGradient
       xlink:href="#linearGradient35"
       id="linearGradient20"
       gradientUnits="userSpaceOnUse"
       gradientTransform="matrix(1.5244137,0,0,1.5014469,-287.31537,944.3008)"
       x1="516.75"
       y1="179.60114"
       x2="516.75"
       y2="287" /><linearGradient
       xlink:href="#linearGradient39"
       id="linearGradient21"
       gradientUnits="userSpaceOnUse"
       gradientTransform="matrix(1.7859139,0,0,1.7419167,-765.57882,761.56742)"
       x1="553.17609"
       y1="139.00752"
       x2="492.202"
       y2="283.7525" /><linearGradient
       xlink:href="#linearGradient28"
       id="linearGradient22"
       gradientUnits="userSpaceOnUse"
       gradientTransform="matrix(-1.8534533,0,0,2.0760392,2177.934,792.37196)"
       x1="577.7912"
       y1="166.65819"
       x2="534.27692"
       y2="286.53247" /><linearGradient
       xlink:href="#linearGradient33"
       id="linearGradient23"
       gradientUnits="userSpaceOnUse"
       gradientTransform="matrix(-1.6760066,0,0,1.7751271,1720.839,985.03183)"
       x1="772.42957"
       y1="173.57953"
       x2="831.78455"
       y2="366.71637" /><linearGradient
       xlink:href="#linearGradient41"
       id="linearGradient24"
       gradientUnits="userSpaceOnUse"
       gradientTransform="matrix(2.2680806,0,0,2.3532557,-770.32078,930.16792)"
       x1="567.9892"
       y1="137.83469"
       x2="516.75"
       y2="287" /><linearGradient
       xlink:href="#linearGradient26"
       id="linearGradient25"
       gradientUnits="userSpaceOnUse"
       x1="186.67619"
       y1="56.568542"
       x2="182.43355"
       y2="492.22836"
       gradientTransform="translate(2.8320313e-5,868)" /></defs><g
     id="layer3"
     style="display:inline"
     transform="translate(0,-868)"><rect
       style="display:inline;fill:url(#linearGradient25);fill-opacity:1"
       id="rect13-2"
       width="1366"
       height="768"
       x="0"
       y="868" /><path
       style="display:inline;fill:url(#linearGradient18);fill-opacity:1"
       d="m 495.85493,1100.6088 c 1.7894,-34.7072 58.2141,-38.5234 61.2287,3.6307 25.1804,-13.9903 33.8035,10.6617 31.6191,16.5263 17.3239,-6.4921 33.7046,8.5127 22.6842,11.6458 l -131.74,-0.012 c -28.0629,-5.289 -17.4245,-43.5057 16.208,-31.7911 z"
       id="path3-7" /><path
       style="display:inline;fill:url(#linearGradient19);fill-opacity:1;stroke-width:1.01897"
       d="m 900.64823,1206.1513 c -1.7824,-36.1769 -57.9881,-40.1547 -60.991,3.7844 -25.0826,-14.5826 -33.6723,11.1132 -31.4964,17.2262 -17.2566,-6.7671 -33.5737,8.8731 -22.596,12.1389 l 131.2284,-0.012 c 27.9541,-5.513 17.357,-45.348 -16.145,-33.1373 z"
       id="path3-3-3" /><path
       style="display:inline;fill:url(#linearGradient20);fill-opacity:1;stroke-width:1.5129"
       d="m 459.42623,1293.5506 c 2.7277,-52.111 88.7424,-57.8408 93.3378,5.4513 38.3854,-21.0057 51.5306,16.0079 48.2007,24.8134 26.4088,-9.7477 51.3797,12.7812 34.58,17.4855 l -200.8262,-0.018 c -42.7796,-7.9412 -26.5622,-65.3215 24.7077,-47.7326 z"
       id="path3-3-1-72" /><path
       style="display:inline;fill:url(#linearGradient21);fill-opacity:1;stroke-width:1.76379"
       d="m 109.25993,1166.7526 c 3.1957,-60.457 103.9655,-67.1046 109.3492,6.3243 44.97,-24.3698 60.3703,18.5718 56.4691,28.7875 30.939,-11.3088 60.1934,14.8283 40.5119,20.286 l -235.276202,-0.02 c -50.1181,-9.2131 -31.1188,-75.7833 28.946002,-55.3774 z"
       id="path3-3-1-4-6" /><path
       style="display:inline;fill:url(#linearGradient7-6);fill-opacity:1;stroke-width:1.72487"
       d="m 899.83893,1397.9421 c -2.999,-61.6097 -97.5672,-68.384 -102.6196,6.4449 -42.2026,-24.8345 -56.6551,18.9258 -52.994,29.3363 -29.0349,-11.5244 -56.489,15.111 -38.0187,20.6727 l 220.797,-0.021 c 47.0337,-9.3887 29.2037,-77.2281 -27.1647,-56.4331 z"
       id="path3-3-1-7-0" /><path
       style="display:inline;fill:url(#linearGradient22);fill-opacity:1;stroke-width:1.96161"
       d="m 1270.0107,1275.277 c -3.3165,-72.0535 -107.8971,-79.9761 -113.4844,7.5374 -46.6708,-29.0443 -62.6535,22.134 -58.6048,34.3093 -32.1089,-13.478 -62.4697,17.6725 -42.0439,24.1771 l 244.1737,-0.024 c 52.0135,-10.9803 32.2956,-90.3196 -30.0406,-65.9995 z"
       id="path3-3-1-7-8-1" /><path
       style="display:inline;fill:url(#linearGradient23);fill-opacity:1;stroke-width:2.31029"
       d="m 340.70963,1477.556 c 4.0585,-81.6749 132.0344,-90.6554 138.8716,8.5439 57.1112,-32.9227 76.6692,25.0896 71.7148,38.8907 39.292,-15.2778 76.4446,20.0323 51.4495,27.4054 l -298.7968,-0.028 c -63.6491,-12.4464 -39.5203,-102.38 36.7609,-74.8124 z"
       id="path3-3-1-7-4-6" /><path
       style="display:inline;fill:url(#linearGradient24);fill-opacity:1;stroke-width:2.63629"
       d="m -172.03787,1351.2258 c 5.0278,-85.848 163.5676983,-95.2874 172.037898320313,8.9803 C 70.750928,1325.6014 94.979928,1386.5777 88.842228,1401.0839 c 48.676002,-16.0584 94.701702,21.0558 63.737002,28.8056 l -370.1575,-0.029 c -78.8503,-13.0823 -48.9589,-107.6109 45.5404,-78.6348 z"
       id="path3-3-1-7-4-8-5" /><path
       style="display:inline;fill:url(#linearGradient8-3);fill-opacity:1;stroke-width:2.42174"
       d="m 1062.9543,1566.5677 c -4.8068,-75.7734 -156.37767,-84.105 -164.47547,7.9265 -67.6408,-30.5438 -90.8048,23.2767 -84.9369,36.0806 -46.5363,-14.1738 -90.5388,18.5849 -60.9353,25.4252 l 353.88617,-0.026 c 75.3842,-11.5471 46.8067,-94.9824 -43.5385,-69.4068 z"
       id="path3-3-1-7-5-7" /></g></svg>
