<?xml version="1.0" encoding="UTF-8" standalone="no"?>
<!-- Created with Inkscape (http://www.inkscape.org/) -->

<svg
   width="1366"
   height="768"
   viewBox="0 0 1366 768"
   version="1.1"
   id="svg1"
   xml:space="preserve"
   sodipodi:docname="background_home_light.svg"
   inkscape:version="1.4.2 (f4327f4, 2025-05-13)"
   xmlns:inkscape="http://www.inkscape.org/namespaces/inkscape"
   xmlns:sodipodi="http://sodipodi.sourceforge.net/DTD/sodipodi-0.dtd"
   xmlns:xlink="http://www.w3.org/1999/xlink"
   xmlns="http://www.w3.org/2000/svg"
   xmlns:svg="http://www.w3.org/2000/svg"><sodipodi:namedview
     id="namedview1"
     pagecolor="#ffffff"
     bordercolor="#999999"
     borderopacity="1"
     inkscape:showpageshadow="2"
     inkscape:pageopacity="0"
     inkscape:pagecheckerboard="0"
     inkscape:deskcolor="#d1d1d1"
     inkscape:zoom="0.73567708"
     inkscape:cx="682.3646"
     inkscape:cy="384"
     inkscape:window-width="1366"
     inkscape:window-height="745"
     inkscape:window-x="-8"
     inkscape:window-y="-8"
     inkscape:window-maximized="1"
     inkscape:current-layer="svg1" /><defs
     id="defs1"><linearGradient
       id="linearGradient13"><stop
         style="stop-color:#b6e3f8;stop-opacity:1;"
         offset="0"
         id="stop13" /><stop
         style="stop-color:#d5f5ff;stop-opacity:1;"
         offset="1"
         id="stop14" /></linearGradient><linearGradient
       id="linearGradient3"><stop
         style="stop-color:#ffffff;stop-opacity:1;"
         offset="0"
         id="stop3" /><stop
         style="stop-color:#ffffff;stop-opacity:0;"
         offset="1"
         id="stop4" /></linearGradient><linearGradient
       xlink:href="#linearGradient3"
       id="linearGradient4"
       x1="516.75"
       y1="179.60114"
       x2="516.75"
       y2="287"
       gradientUnits="userSpaceOnUse"
       gradientTransform="translate(6)" /><linearGradient
       xlink:href="#linearGradient3"
       id="linearGradient5"
       gradientUnits="userSpaceOnUse"
       x1="516.75"
       y1="179.60114"
       x2="516.75"
       y2="287"
       gradientTransform="matrix(-0.99611765,0,0,1.0423448,1388.6014,95.692721)" /><linearGradient
       xlink:href="#linearGradient3"
       id="linearGradient6"
       gradientUnits="userSpaceOnUse"
       gradientTransform="matrix(1.5244137,0,0,1.5014469,-287.31543,76.300804)"
       x1="516.75"
       y1="179.60114"
       x2="516.75"
       y2="287" /><linearGradient
       xlink:href="#linearGradient3"
       id="linearGradient7"
       gradientUnits="userSpaceOnUse"
       gradientTransform="matrix(-1.6760066,0,0,1.7751271,1720.839,117.03183)"
       x1="533.62598"
       y1="175.61772"
       x2="516.75"
       y2="287" /><linearGradient
       xlink:href="#linearGradient3"
       id="linearGradient8"
       gradientUnits="userSpaceOnUse"
       gradientTransform="matrix(-2.6862483,0,0,2.1832178,2378.8263,190.73187)"
       x1="553.07599"
       y1="133.41231"
       x2="516.75"
       y2="287" /><linearGradient
       xlink:href="#linearGradient3"
       id="linearGradient9"
       gradientUnits="userSpaceOnUse"
       gradientTransform="matrix(2.2680806,0,0,2.3532557,-770.32079,62.167917)"
       x1="567.9892"
       y1="137.83469"
       x2="516.75"
       y2="287" /><linearGradient
       xlink:href="#linearGradient13"
       id="linearGradient14"
       x1="181.01933"
       y1="0"
       x2="182.43355"
       y2="492.22836"
       gradientUnits="userSpaceOnUse" /><linearGradient
       xlink:href="#linearGradient3"
       id="linearGradient15"
       gradientUnits="userSpaceOnUse"
       gradientTransform="matrix(1.7859139,0,0,1.7419167,-765.57883,-106.43258)"
       x1="553.17609"
       y1="139.00752"
       x2="492.202"
       y2="283.7525" /><linearGradient
       xlink:href="#linearGradient3"
       id="linearGradient16"
       gradientUnits="userSpaceOnUse"
       gradientTransform="matrix(-1.8534533,0,0,2.0760392,2177.934,-75.62804)"
       x1="577.7912"
       y1="166.65819"
       x2="521.32812"
       y2="278.8255" /><linearGradient
       xlink:href="#linearGradient3"
       id="linearGradient17"
       gradientUnits="userSpaceOnUse"
       gradientTransform="matrix(2.8097597,0,0,2.4734906,-1548.4124,-92.130054)"
       x1="516.75"
       y1="179.60114"
       x2="516.75"
       y2="287" /></defs><g
     id="layer2"
     style="fill:#b8e4f9;fill-opacity:1"><rect
       style="opacity:1;fill:url(#linearGradient14);fill-opacity:1"
       id="rect13"
       width="1366"
       height="768"
       x="0"
       y="0" /></g><g
     id="layer1"><path
       style="display:inline;opacity:1;fill:url(#linearGradient4);fill-opacity:1"
       d="m 495.85487,232.60885 c 1.78939,-34.70723 58.21412,-38.52344 61.22868,3.63064 25.18041,-13.99025 33.80356,10.66168 31.61916,16.52633 17.32389,-6.49216 33.70454,8.51264 22.68413,11.64577 l -131.73991,-0.0117 c -28.063,-5.28901 -17.42458,-43.50569 16.20794,-31.79104 z"
       id="path3" /><path
       style="display:inline;fill:url(#linearGradient5);fill-opacity:1;stroke-width:1.01897"
       d="m 900.64819,338.15134 c -1.78245,-36.17689 -57.98812,-40.15469 -60.99098,3.78439 -25.08265,-14.58267 -33.67232,11.11314 -31.4964,17.22613 -17.25663,-6.76707 -33.57369,8.8731 -22.59606,12.13891 l 131.22846,-0.0122 c 27.95404,-5.51298 17.35692,-45.34793 -16.14502,-33.13723 z"
       id="path3-3" /><path
       style="display:inline;fill:url(#linearGradient6);fill-opacity:1;stroke-width:1.5129"
       d="m 459.42613,425.55064 c 2.72778,-52.11105 88.74244,-57.84088 93.33786,5.45123 38.38535,-21.00563 51.53062,16.00793 48.20068,24.8134 26.40877,-9.74764 51.37967,12.78126 34.58001,17.4855 l -200.82616,-0.0176 c -42.7796,-7.94119 -26.56225,-65.32149 24.70761,-47.73256 z"
       id="path3-3-1" /><path
       style="display:inline;fill:url(#linearGradient15);fill-opacity:1;stroke-width:1.76379"
       d="m 109.2599,298.75265 c 3.19571,-60.45709 103.96546,-67.1046 109.34918,6.32429 44.97003,-24.36986 60.37026,18.57174 56.4691,28.78749 30.93897,-11.30881 60.19341,14.82829 40.51191,20.28595 L 80.313913,354.12996 C 30.195831,344.91692 49.195129,278.34667 109.2599,298.75262 Z"
       id="path3-3-1-4" /><path
       style="display:inline;fill:url(#linearGradient7);fill-opacity:1;stroke-width:1.72487"
       d="m 899.83892,529.94211 c -2.99903,-61.60973 -97.56728,-68.38398 -102.61968,6.44486 -42.20253,-24.83448 -56.65502,18.92582 -52.99392,29.33633 -29.03496,-11.52442 -56.48906,15.11099 -38.01877,20.67271 l 220.797,-0.0208 c 47.03376,-9.38869 29.20368,-77.22814 -27.16463,-56.43314 z"
       id="path3-3-1-7" /><path
       style="display:inline;fill:url(#linearGradient16);fill-opacity:1;stroke-width:1.96161"
       d="m 1270.0107,407.27704 c -3.3165,-72.05355 -107.8971,-79.97614 -113.4844,7.53737 -46.6708,-29.04432 -62.6535,22.13404 -58.6048,34.3093 -32.1089,-13.47799 -62.4697,17.67254 -42.0439,24.17706 l 244.1737,-0.0243 c 52.0135,-10.98022 32.2956,-90.31953 -30.0406,-65.99944 z"
       id="path3-3-1-7-8" /><path
       style="display:inline;fill:url(#linearGradient9);fill-opacity:1;stroke-width:2.31029"
       d="m 340.7096,609.55604 c 4.05847,-81.67497 132.03434,-90.65548 138.87158,8.54384 57.11119,-32.92265 76.66924,25.08963 71.71481,38.89067 39.29197,-15.27773 76.44463,20.03238 51.44944,27.40546 l -298.79677,-0.0276 C 240.29954,671.92198 264.42834,581.98839 340.7096,609.55597 Z"
       id="path3-3-1-7-4" /><path
       style="display:inline;fill:url(#linearGradient17);fill-opacity:1;stroke-width:2.63629"
       d="M -172.03788,483.22578 C -167.01013,397.37779 -8.470158,387.93844 0,492.20615 c 70.750884,-34.60477 94.979924,26.37153 88.842244,40.87771 48.675956,-16.05831 94.701676,21.05589 63.736956,28.80569 l -370.15753,-0.029 c -78.85025,-13.08236 -48.95884,-107.61093 45.54045,-78.63483 z"
       id="path3-3-1-7-4-8" /><path
       style="display:inline;fill:url(#linearGradient8);fill-opacity:1;stroke-width:2.42174"
       d="m 1062.9543,698.5677 c -4.8068,-75.77343 -156.3777,-84.10504 -164.47553,7.92649 -67.64083,-30.54377 -90.80481,23.27675 -84.93691,36.08057 C 767.00557,728.40095 723.00305,761.15967 752.6066,768 l 353.8862,-0.0256 c 75.3842,-11.54709 46.8067,-94.98242 -43.5385,-69.40677 z"
       id="path3-3-1-7-5" /></g></svg>
