<?xml version="1.0" encoding="UTF-8" standalone="no"?>
<svg
   width="656.31927"
   height="623.24817"
   viewBox="0 0 656.31927 623.24817"
   version="1.1"
   id="svg81"
   xmlns="http://www.w3.org/2000/svg"
   xmlns:svg="http://www.w3.org/2000/svg">
  <defs
     id="defs81" />
  <g
     id="g91"
     transform="translate(-1545.9372,-2990.5756)">
    <path
       fill-rule="nonzero"
       fill="#a0a0a0"
       fill-opacity="1"
       d="m 1745.7305,3199.0156 h 434.9492 c 0,0 33.1612,-29.6878 17.2627,-69.9105 -15.9023,-40.2187 -69.6874,-28.7265 -69.6874,-28.7265 0,0 6.2886,-93.7777 -74.4983,-108.2003 -95.0508,-5.4961 -104.4293,28.5298 -104.4293,28.5298 0,0 -32.0147,-56.2557 -113.0539,-15.0359 -82.9173,42.1752 -66.6954,115.1989 -66.6954,115.1989 0,0 -49.9687,-27.582 -70.4062,17.2383 -20.4414,44.8164 46.5586,60.9062 46.5586,60.9062 z"
       id="path71" />
    <path
       fill-rule="nonzero"
       fill="#3ca9ff"
       fill-opacity="1"
       d="m 1870.2965,3329.4336 c 0,0 -53.8984,65.9219 -46.9102,97.211 6.9805,31.289 46.9102,30.6116 46.9102,30.6116 0,0 39.9219,0.6774 46.9101,-30.6116 6.9805,-31.2891 -46.9101,-97.211 -46.9101,-97.211 z"
       id="path7-8-0-4" />
    <path
       fill-rule="nonzero"
       fill="#3ca9ff"
       fill-opacity="1"
       d="m 2067.7832,3331.5708 c 0,0 -53.8984,65.9219 -46.9102,97.211 6.9805,31.289 46.9102,30.6116 46.9102,30.6116 0,0 39.9219,0.6774 46.9101,-30.6116 6.9805,-31.2891 -46.9101,-97.211 -46.9101,-97.211 z"
       id="path7-8-0-4-6" />
    <path
       fill-rule="nonzero"
       fill="#3ca9ff"
       fill-opacity="1"
       d="m 1975.5354,3486 c 0,0 -53.8984,65.9219 -46.9102,97.211 6.9805,31.289 46.9102,30.6116 46.9102,30.6116 0,0 39.9219,0.6774 46.9101,-30.6116 6.9805,-31.2891 -46.9101,-97.211 -46.9101,-97.211 z"
       id="path7-8-0-4-66" />
    <path
       fill-rule="nonzero"
       fill="#3ca9ff"
       fill-opacity="1"
       d="m 1781.5354,3479 c 0,0 -53.8984,65.9219 -46.9102,97.211 6.9805,31.289 46.9102,30.6116 46.9102,30.6116 0,0 39.9219,0.6774 46.9101,-30.6116 6.9805,-31.2891 -46.9101,-97.211 -46.9101,-97.211 z"
       id="path7-8-0-4-8" />
    <path
       fill-rule="nonzero"
       fill="#3ca9ff"
       fill-opacity="1"
       d="m 1686.4469,3330.7035 c 0,0 -53.8984,65.9219 -46.9102,97.211 6.9805,31.289 46.9102,30.6116 46.9102,30.6116 0,0 39.9219,0.6774 46.9101,-30.6116 6.9805,-31.2891 -46.9101,-97.211 -46.9101,-97.211 z"
       id="path7-8-0-4-9" />
    <path
       fill-rule="nonzero"
       fill="#dcdcdc"
       fill-opacity="1"
       d="m 1575.4805,3302.7188 h 480.6601 c 0,0 36.0906,-27.4151 18.5203,-71.3409 -17.5703,-43.9258 -69.7781,-37.2415 -69.7781,-37.2415 0,0 12.1729,-135.1101 -93.9095,-136.0821 -94.4804,3.2774 -114.6139,48.8871 -114.6139,48.8871 0,0 -31.5323,-61.4047 -135.2603,-12.2176 -79.0887,42.1513 -59.2593,103.8824 -59.2593,103.8824 0,0 -27.0596,-11.3445 -49.6495,37.6008 -22.5898,48.9414 23.2902,66.5118 23.2902,66.5118 z"
       id="path72" />
  </g>
</svg>
