<?xml version="1.0" encoding="UTF-8" standalone="no"?>
<svg
   width="560.0929"
   height="681.90314"
   viewBox="0 0 560.0929 681.90314"
   version="1.1"
   id="svg81"
   xmlns="http://www.w3.org/2000/svg"
   xmlns:svg="http://www.w3.org/2000/svg">
  <defs
     id="defs81" />
  <g
     id="g87"
     transform="translate(-1587.8281,-1993.3281)">
    <path
       fill-rule="nonzero"
       fill="#ffbf06"
       fill-opacity="1"
       d="m 1925.3906,2014.5391 c -36.6718,-13.5899 -75.4101,-20.7578 -114.5195,-21.211 3.0391,1.0313 6.0781,2.1016 9.0977,3.2227 79.8828,29.5898 119.0231,63.1505 154.5817,140.5607 35.5703,77.4101 41.175,182.9435 11.5929,262.8303 -55.8213,146.4517 -230.4305,258.9888 -396.7899,197.3677 -3.0117,-1.1094 1.4551,-0.6181 -1.5254,-1.8212 29.961,25.1328 64.0313,44.9219 100.7032,58.5117 84.7968,31.4102 178.5976,27.8516 260.7695,-9.8984 82.168,-37.7618 145.9805,-106.6016 177.3906,-191.4024 31.4102,-84.8008 27.8477,-178.5976 -9.9023,-260.7695 -37.75,-82.168 -106.5977,-145.9883 -191.3985,-177.3906 z"
       id="path31" />
  </g>
</svg>
