<?xml version="1.0" encoding="UTF-8" standalone="no"?>
<svg
   width="708.99078"
   height="374.31796"
   viewBox="0 0 708.99078 374.31796"
   version="1.1"
   id="svg81"
   xmlns="http://www.w3.org/2000/svg"
   xmlns:svg="http://www.w3.org/2000/svg">
  <defs
     id="defs81" />
  <g
     id="g81"
     transform="translate(-591.88882,-285.23282)">
    <path
       fill-rule="nonzero"
       fill="#a0a0a0"
       fill-opacity="1"
       d="m 817.87109,555.85156 h 434.94921 c 0,0 61.3203,-39.08203 45.4297,-79.30078 -15.8984,-40.22266 -83.3378,-40.34551 -83.3378,-40.34551 0,0 36.3573,-143.16621 -91.3614,-150.55683 -95.0508,-5.48828 -109.6085,45.19178 -109.6085,45.19178 0,0 -26.86027,-58.84022 -131.34074,-10.57069 -104.47656,48.26172 -40.88281,157.42969 -40.88281,157.42969 0,0 -49.96484,-27.57813 -70.40625,17.24219 -20.44141,44.82031 46.55859,60.91015 46.55859,60.91015 z"
       id="path1" />
    <path
       fill-rule="nonzero"
       fill="#dcdcdc"
       fill-opacity="1"
       d="m 647.62891,659.55078 h 480.66019 c 0,0 67.7695,-42.67187 50.1992,-86.58984 -17.5664,-43.92969 -81.0022,-52.95362 -81.0022,-52.95362 0,0 32.7756,-171.76693 -108.50173,-166.86459 -94.48828,3.26954 -120.47656,84.07813 -120.47656,84.07813 0,0 -33.88672,-87.65055 -149.34375,-34.93961 -115.46094,52.70703 -68.40978,155.33677 -68.40978,155.33677 0,0 -31.98866,-13.52818 -54.5785,35.41323 -22.58984,48.94922 51.45313,66.51953 51.45313,66.51953 z"
       id="path2" />
  </g>
</svg>
