<?xml version="1.0" encoding="UTF-8" standalone="no"?>
<svg
   width="698.66663"
   height="484.89844"
   viewBox="0 0 698.66663 484.89844"
   version="1.1"
   id="svg81"
   xmlns="http://www.w3.org/2000/svg"
   xmlns:svg="http://www.w3.org/2000/svg">
  <defs
     id="defs81" />
  <g
     id="g83"
     transform="translate(-2452.1035,-194.82031)">
    <path
       fill-rule="nonzero"
       fill="#a0a0a0"
       fill-opacity="1"
       d="m 2678.0898,576.01953 h 434.9493 c 0,0 50.5349,-38.24848 34.6364,-78.45941 -15.9023,-40.23047 -72.5445,-34.538 -72.5445,-34.538 0,0 14.7865,-103.351 -83.8947,-133.97172 -92.5618,8.6118 -112.927,51.83677 -112.927,51.83677 0,0 -31.0085,-88.7153 -135.489,-40.44576 -104.4805,48.25781 -40.8789,157.42968 -40.8789,157.42968 0,0 -49.9726,-27.58203 -70.4101,17.23828 -20.4415,44.82032 46.5585,60.91016 46.5585,60.91016 z"
       id="path8" />
    <path
       fill-rule="nonzero"
       fill="#ffbf06"
       fill-opacity="1"
       d="m 2855.5703,350.17187 c 0,41.19922 -16.3711,80.71875 -45.5,109.85938 -29.1406,29.12891 -68.6484,45.5 -109.8515,45.5 -41.2071,0 -80.7188,-16.37109 -109.8594,-45.5 -29.1289,-29.14063 -45.5,-68.66016 -45.5,-109.85938 0,-41.20312 16.3711,-80.72265 45.5,-109.85156 29.1406,-29.14062 68.6523,-45.5 109.8594,-45.5 41.2031,0 80.7109,16.35938 109.8515,45.5 29.1289,29.12891 45.5,68.64844 45.5,109.85156 z m 0,0"
       id="path9" />
    <path
       fill-rule="nonzero"
       fill="#dcdcdc"
       fill-opacity="1"
       d="M 2507.8398,679.71875 H 2988.5 c 0,0 67.7695,-42.66016 50.1992,-86.58984 -17.5703,-43.91797 -84.3208,-34.69749 -84.3208,-34.69749 0,0 25.3167,-117.0103 -105.1792,-158.57205 -94.4804,3.28125 -122.1397,61.68159 -122.1397,61.68159 0,0 -29.7307,-71.89117 -147.6806,-39.09174 -87.2491,56.85917 -36.0536,150.37061 -36.0536,150.37061 0,0 -64.3448,-8.5503 -86.9347,40.39111 -22.5898,48.94922 51.4492,66.50781 51.4492,66.50781 z"
       id="path10" />
  </g>
</svg>
