<?xml version="1.0" encoding="UTF-8" standalone="no"?>
<svg
   width="691.48395"
   height="582.05078"
   viewBox="0 0 691.48395 582.05078"
   version="1.1"
   id="svg81"
   xmlns="http://www.w3.org/2000/svg"
   xmlns:svg="http://www.w3.org/2000/svg">
  <defs
     id="defs81" />
  <g
     id="g88"
     transform="translate(-599.66869,-1996.3594)">
    <path
       fill-rule="nonzero"
       fill="#a0a0a0"
       fill-opacity="1"
       d="m 817.87109,2474.6992 h 434.94921 c 0,0 48.4141,-39.0703 32.5234,-79.289 -15.8984,-40.2305 -67.3487,-38.1169 -67.3487,-38.1169 0,0 34.4478,-120.7634 -93.2709,-128.1541 -76.2781,-4.315 -105.6026,46.1371 -105.6026,46.1371 0,0 -46.11903,-56.2656 -133.00005,-17.3825 -84.53052,52.951 -44.4027,138.657 -44.4027,138.657 0,0 -49.96484,-27.5703 -70.40625,17.2383 -20.44141,44.8203 46.55859,60.9101 46.55859,60.9101 z"
       id="path28" />
    <path
       fill-rule="nonzero"
       fill="#ffbf06"
       fill-opacity="1"
       d="m 1130.1992,2011.5391 c -26.2383,-9.7188 -53.9609,-14.8594 -81.9492,-15.1797 2.1797,0.7422 4.3594,1.5 6.5117,2.3008 57.168,21.1796 84.8054,44.2453 110.2546,99.6437 25.4492,55.3906 35.2249,105.3245 14.0452,162.4925 -44.0898,119.039 -155.2127,188.0138 -274.25175,143.9123 -13.89312,-19.5697 -14.02459,23.4007 -16.1535,22.5413 21.4375,17.9805 45.8125,32.1484 72.05469,41.8711 60.67966,22.4805 127.80076,19.9297 186.59766,-7.0898 55.2809,-36.3981 105.9604,-83.2051 126.9414,-136.961 28.3839,-72.7232 17.5831,-128.9741 -7.0898,-186.6015 -27.0118,-58.7969 -76.2813,-104.4571 -136.961,-126.9375 z"
       id="path29" />
    <path
       fill-rule="nonzero"
       fill="#dcdcdc"
       fill-opacity="1"
       d="m 647.62891,2578.4102 h 480.66019 c 0,0 58.3831,-37.9865 40.8128,-81.9084 -17.5664,-43.918 -73.3097,-30.1939 -73.3097,-30.1939 0,0 29.7763,-129.2475 -104.46123,-141.9563 -94.48828,3.2812 -121.64986,41.8433 -121.64986,41.8433 0,0 -23.32705,-75.4804 -138.78408,-22.7734 -75.56885,43.3246 -55.73936,116.7965 -55.73936,116.7965 0,0 -48.17897,-12.5295 -70.76881,36.4198 -22.58985,48.9492 43.24005,81.7724 43.24005,81.7724 z"
       id="path30" />
  </g>
</svg>
