<?xml version="1.0" encoding="UTF-8" standalone="no"?>
<svg
   width="672.6897"
   height="634.88934"
   viewBox="0 0 672.6897 634.88934"
   version="1.1"
   id="svg81"
   xmlns="http://www.w3.org/2000/svg"
   xmlns:svg="http://www.w3.org/2000/svg">
  <defs
     id="defs81" />
  <g
     id="g92"
     transform="translate(-611.43849,-2979.9788)">
    <path
       fill-rule="nonzero"
       fill="#ffbf06"
       fill-opacity="1"
       d="m 694.64358,3349.3553 87.04332,-9.3864 -59.79794,115.2586 87.76033,-11.733 -129.54549,171.3736 36.53267,-119.8487 -76.17329,10.5596 z"
       id="path24-6" />
    <path
       fill-rule="nonzero"
       fill="#ffbf06"
       fill-opacity="1"
       d="m 888.23436,3347.3864 87.04332,-9.3864 -59.79794,115.2586 87.76026,-11.733 -129.54542,171.3736 36.53267,-119.8487 -76.17329,10.5596 z"
       id="path24-3" />
    <path
       fill-rule="nonzero"
       fill="#a0a0a0"
       fill-opacity="1"
       d="m 817.87109,3216.5859 h 434.94921 c 0,0 43.7209,-37.897 27.8303,-78.1196 -15.8985,-40.2188 -68.5221,-34.5931 -68.5221,-34.5931 0,0 2.7688,-112.5504 -85.0578,-123.457 -95.0508,-5.4961 -111.4691,42.6133 -111.4691,42.6133 0,0 -42.59913,-60.9588 -125.96026,-20.9063 -83.35722,41.2259 -47.92259,136.3182 -47.92259,136.3182 0,0 -49.96484,-27.5781 -70.40625,17.2383 -20.44141,44.8203 46.55859,60.9062 46.55859,60.9062 z"
       id="path66" />
    <path
       fill-rule="nonzero"
       fill="#dcdcdc"
       fill-opacity="1"
       d="m 647.62891,3320.293 h 480.66019 c 0,0 53.6899,-42.668 36.1196,-86.5938 -17.5664,-43.9258 -69.7898,-31.375 -69.7898,-31.375 0,0 0.4439,-138.6299 -89.2084,-141.9485 -94.48023,-3.4972 -139.24928,47.7138 -139.24928,47.7138 0,0 -60.87254,-56.7116 -141.13067,-15.7376 -72.04897,44.4979 -52.21947,107.4023 -52.21947,107.4023 0,0 -36.44601,3.9084 -59.03585,52.8498 -13.20347,34.8658 33.85368,67.689 33.85368,67.689 z"
       id="path67" />
    <path
       fill-rule="nonzero"
       fill="#ffbf06"
       fill-opacity="1"
       d="m 1082.1264,3348.8523 87.0433,-9.3864 -59.7979,115.2586 87.7603,-11.733 -129.5455,171.3736 36.5327,-119.8487 -76.1733,10.5596 z"
       id="path24-9" />
  </g>
</svg>
