<?xml version="1.0" encoding="UTF-8" standalone="no"?>
<svg
   width="708.99078"
   height="647.46136"
   viewBox="0 0 708.99078 647.46136"
   version="1.1"
   id="svg81"
   xmlns="http://www.w3.org/2000/svg"
   xmlns:svg="http://www.w3.org/2000/svg">
  <defs
     id="defs81" />
  <g
     id="g84"
     transform="translate(-591.88882,-1115.0386)">
    <path
       fill-rule="nonzero"
       fill="#a0a0a0"
       fill-opacity="1"
       d="m 817.87109,1368.0117 h 434.94921 c 0,0 61.3203,-39.0703 45.4297,-79.3008 -15.8984,-40.2226 -72.0419,-39.2901 -72.0419,-39.2901 0,0 25.0614,-93.7698 -89.7511,-134.0128 -95.0507,-5.4882 -106.7759,51.9958 -106.7759,51.9958 0,0 -39.07918,-62.1243 -143.55965,-13.8548 -104.47656,48.2617 -44.4027,136.3104 -44.4027,136.3104 0,0 -49.96484,-27.5703 -70.40625,17.2422 -20.44141,44.8203 46.55859,60.9101 46.55859,60.9101 z"
       id="path11" />
    <path
       fill-rule="nonzero"
       fill="#3ca9ff"
       fill-opacity="1"
       d="m 1107.9671,1516 c 0,0 -53.8984,65.9219 -46.9102,97.211 6.9805,31.289 46.9102,30.6116 46.9102,30.6116 0,0 39.9219,0.6774 46.9101,-30.6116 6.9805,-31.2891 -46.9101,-97.211 -46.9101,-97.211 z"
       id="path7-8-0" />
    <path
       fill-rule="nonzero"
       fill="#3ca9ff"
       fill-opacity="1"
       d="m 723.69729,1515.642 c 0,0 -53.8984,65.9219 -46.9102,97.211 6.9805,31.289 46.9102,30.6116 46.9102,30.6116 0,0 39.9219,0.6774 46.9101,-30.6116 6.9805,-31.2891 -46.9101,-97.211 -46.9101,-97.211 z"
       id="path7-8-0-0" />
    <path
       fill-rule="nonzero"
       fill="#dcdcdc"
       fill-opacity="1"
       d="m 647.62891,1471.7109 h 480.66019 c 0,0 56.0365,-39.1519 38.4662,-83.0699 -17.5664,-43.9297 -76.8295,-34.891 -76.8295,-34.891 0,0 32.1228,-125.7237 -100.94143,-156.0319 -94.48828,3.2695 -120.47656,60.6239 -120.47656,60.6239 0,0 -36.23331,-74.3189 -149.34375,-43.9006 -84.95522,60.9201 -44.00639,142.5973 -44.00639,142.5973 0,0 -56.39205,-0.7887 -78.98189,48.1605 -22.58984,48.9414 51.45313,66.5117 51.45313,66.5117 z"
       id="path12" />
    <path
       fill-rule="nonzero"
       fill="#ffbf06"
       fill-opacity="1"
       d="m 885.61009,1496.9872 87.04332,-9.3864 -59.79794,115.2586 87.76033,-11.733 -129.54549,171.3736 36.53267,-119.8487 -76.17329,10.5596 z"
       id="path24" />
  </g>
</svg>
