<?xml version="1.0" encoding="UTF-8" standalone="no"?>
<svg
   width="661.85156"
   height="376.2005"
   viewBox="0 0 661.85156 376.2005"
   version="1.1"
   id="svg81"
   xmlns="http://www.w3.org/2000/svg"
   xmlns:svg="http://www.w3.org/2000/svg">
  <defs
     id="defs81" />
  <g
     id="g90"
     transform="rotate(-0.39105018,-454230.8,374638.6)">
    <path
       fill-rule="nonzero"
       fill="#ffffff"
       fill-opacity="1"
       d="m 2983.9607,3114.0128 c -2.9786,-1.4365 -6.3802,-2.1978 -9.8474,-2.2149 l -407.4943,-2.6573 c -10.7695,-0.075 -19.5664,6.8549 -19.6524,15.4562 -0.094,8.6114 8.5551,15.6464 19.3296,15.7144 l 407.4935,2.6661 c 10.7703,0.066 19.5624,-6.857 19.6485,-15.4583 0.062,-5.5261 -3.5523,-10.6746 -9.4775,-13.5062 z m 0,0"
       id="path55-3"
       style="stroke-width:1.11831" />
    <path
       fill-rule="nonzero"
       fill="#ffffff"
       fill-opacity="1"
       d="m 3063.3666,3329.2444 c -2.9786,-1.4365 -6.3802,-2.1978 -9.8474,-2.2149 l -407.4943,-2.6573 c -10.7695,-0.075 -19.5664,6.8549 -19.6524,15.4562 -0.094,8.6114 8.5551,15.6464 19.3296,15.7144 l 407.4935,2.6661 c 10.7703,0.066 19.5624,-6.857 19.6485,-15.4583 0.062,-5.5261 -3.5523,-10.6746 -9.4775,-13.5062 z m 0,0"
       id="path55-3-7"
       style="stroke-width:1.11831" />
    <path
       fill-rule="nonzero"
       fill="#ffffff"
       fill-opacity="1"
       d="m 3168.2964,3401.8459 c -1.9602,-1.4365 -4.1987,-2.1978 -6.4805,-2.2149 l -268.1668,-2.6573 c -7.0872,-0.075 -12.8764,6.8549 -12.933,15.4562 -0.062,8.6114 5.63,15.6464 12.7206,15.7144 l 268.1663,2.6661 c 7.0878,0.066 12.8737,-6.857 12.9304,-15.4583 0.041,-5.5261 -2.3377,-10.6746 -6.237,-13.5062 z m 0,0"
       id="path55-3-2"
       style="stroke-width:0.907202" />
    <path
       fill-rule="nonzero"
       fill="#ffffff"
       fill-opacity="1"
       d="m 3130.801,3459.0163 c -3.9306,-1.4365 -8.4194,-2.1978 -12.9947,-2.2149 l -537.7353,-2.6573 c -14.2116,-0.075 -25.8201,6.8549 -25.9336,15.4562 -0.124,8.6114 11.2895,15.6464 25.5077,15.7144 l 537.7341,2.6661 c 14.2127,0.066 25.8148,-6.857 25.9285,-15.4583 0.082,-5.5261 -4.6877,-10.6746 -12.5067,-13.5062 z m 0,0"
       id="path55-3-79"
       style="stroke-width:1.28465" />
    <path
       fill-rule="nonzero"
       fill="#ffffff"
       fill-opacity="1"
       d="m 2804.2668,3386.9658 c -1.3656,-1.4365 -2.9252,-2.1978 -4.5148,-2.2149 l -186.823,-2.6573 c -4.9375,-0.075 -8.9706,6.8549 -9.01,15.4562 -0.043,8.6114 3.9222,15.6464 8.862,15.7144 l 186.8227,2.6661 c 4.9378,0.066 8.9687,-6.857 9.0082,-15.4583 0.028,-5.5261 -1.6286,-10.6746 -4.3451,-13.5062 z m 0,0"
       id="path55-3-19"
       style="stroke-width:0.757211" />
    <path
       fill-rule="nonzero"
       fill="#ffffff"
       fill-opacity="1"
       d="m 3157.3491,3259.0032 c -1.3656,-1.4365 -2.9252,-2.1978 -4.5148,-2.2149 l -186.823,-2.6573 c -4.9375,-0.075 -8.9706,6.8549 -9.01,15.4562 -0.043,8.6114 3.9222,15.6464 8.862,15.7144 l 186.8227,2.6661 c 4.9378,0.066 8.9687,-6.857 9.0082,-15.4583 0.028,-5.5261 -1.6286,-10.6746 -4.3451,-13.5062 z m 0,0"
       id="path55-3-19-6"
       style="stroke-width:0.757211" />
    <path
       fill-rule="nonzero"
       fill="#ffffff"
       fill-opacity="1"
       d="m 2779.0844,3184.2356 c -1.4763,-1.4365 -3.1624,-2.1978 -4.8808,-2.2149 l -201.9673,-2.6573 c -5.3377,-0.075 -9.6978,6.8549 -9.7404,15.4562 -0.046,8.6114 4.2402,15.6464 9.5804,15.7144 l 201.967,2.6661 c 5.338,0.066 9.6957,-6.857 9.7384,-15.4583 0.03,-5.5261 -1.7606,-10.6746 -4.6973,-13.5062 z m 0,0"
       id="path55-3-19-0"
       style="stroke-width:0.787304" />
    <path
       fill-rule="nonzero"
       fill="#ffffff"
       fill-opacity="1"
       d="m 3200.015,3186.9695 c -2.3817,-1.4365 -5.1017,-2.1978 -7.8741,-2.2149 l -325.8372,-2.6573 c -8.6114,-0.075 -15.6455,6.8549 -15.7143,15.4562 -0.075,8.6114 6.8408,15.6464 15.4562,15.7144 l 325.8366,2.6661 c 8.612,0.066 15.6423,-6.857 15.7111,-15.4583 0.05,-5.5261 -2.8404,-10.6746 -7.5783,-13.5062 z m 0,0"
       id="path55-3-1" />
    <path
       fill-rule="nonzero"
       fill="#ffffff"
       fill-opacity="1"
       d="m 2894.7033,3255.6298 c -2.3817,-1.4365 -5.1017,-2.1978 -7.8741,-2.2149 l -325.8372,-2.6573 c -8.6114,-0.075 -15.6455,6.8549 -15.7143,15.4562 -0.075,8.6114 6.8408,15.6464 15.4562,15.7144 l 325.8366,2.6661 c 8.612,0.066 15.6423,-6.857 15.7111,-15.4583 0.05,-5.5261 -2.8404,-10.6746 -7.5783,-13.5062 z m 0,0"
       id="path55-3-1-3" />
  </g>
</svg>
