<?xml version="1.0" encoding="UTF-8" standalone="no"?>
<svg
   width="708.9895"
   height="515.81128"
   viewBox="0 0 708.9895 515.81128"
   version="1.1"
   id="svg81"
   xmlns="http://www.w3.org/2000/svg"
   xmlns:svg="http://www.w3.org/2000/svg">
  <defs
     id="defs81" />
  <g
     id="g82"
     transform="translate(-1519.7441,-241.73259)">
    <path
       fill-rule="nonzero"
       fill="#a0a0a0"
       fill-opacity="1"
       d="m 1745.7305,495.85156 h 434.9492 c 0,0 61.3203,-39.08203 45.4219,-79.30078 -15.9024,-40.22266 -94.945,-45.32339 -94.945,-45.32339 0,0 14.7865,-108.32107 -96.3394,-128.98603 -95.0507,-5.48828 -89.697,35.23603 -89.697,35.23603 0,0 -28.5195,-52.20305 -133,-3.93352 -104.4804,48.26172 -42.5421,144.15535 -42.5421,144.15535 0,0 -49.9687,-27.57813 -70.4062,17.24219 -20.4414,44.82031 46.5586,60.91015 46.5586,60.91015 z"
       id="path3" />
    <path
       fill-rule="nonzero"
       fill="#dcdcdc"
       fill-opacity="1"
       d="m 1575.4805,599.55078 h 480.6601 c 0,0 67.7696,-42.67187 50.1992,-86.58984 -17.5703,-43.92969 -66.0568,-56.2722 -66.0568,-56.2722 0,0 17.8381,-141.89968 -123.4432,-136.99733 -94.4804,3.26953 -117.1618,67.4852 -117.1618,67.4852 0,0 -22.2639,-79.35409 -137.7248,-26.64315 -83.9344,56.02562 -60.1134,153.67748 -60.1134,153.67748 0,0 -55.2187,-30.1211 -77.8085,18.82031 -22.5899,48.94922 51.4492,66.51953 51.4492,66.51953 z"
       id="path4" />
    <path
       fill-rule="nonzero"
       fill="#3ca9ff"
       fill-opacity="1"
       d="m 2068.9297,628.26953 c 0,0 -53.8984,65.92188 -46.9102,97.21094 6.9805,31.28906 46.9102,30.61161 46.9102,30.61161 0,0 39.9219,0.67745 46.9101,-30.61161 6.9805,-31.28906 -46.9101,-97.21094 -46.9101,-97.21094 z"
       id="path7" />
    <path
       fill-rule="nonzero"
       fill="#3ca9ff"
       fill-opacity="1"
       d="m 1871.1106,629.72017 c 0,0 -53.8984,65.92188 -46.9102,97.21094 6.9805,31.28906 46.9102,30.61161 46.9102,30.61161 0,0 39.9219,0.67745 46.9101,-30.61161 6.9805,-31.28906 -46.9101,-97.21094 -46.9101,-97.21094 z"
       id="path7-8" />
    <path
       fill-rule="nonzero"
       fill="#3ca9ff"
       fill-opacity="1"
       d="m 1683.0297,629.54687 c 0,0 -53.8984,65.92188 -46.9102,97.21094 6.9805,31.28906 46.9102,30.61161 46.9102,30.61161 0,0 39.9219,0.67745 46.9101,-30.61161 6.9805,-31.28906 -46.9101,-97.21094 -46.9101,-97.21094 z"
       id="path7-0" />
  </g>
</svg>
