<?xml version="1.0" encoding="UTF-8" standalone="no"?>
<svg
   width="616.98926"
   height="676.02289"
   viewBox="0 0 616.98926 676.02289"
   version="1.1"
   id="svg81"
   xmlns="http://www.w3.org/2000/svg"
   xmlns:svg="http://www.w3.org/2000/svg">
  <defs
     id="defs81" />
  <g
     id="g86"
     transform="translate(-2486.4719,-2007.2974)">
    <path
       fill-rule="nonzero"
       fill="#ffffff"
       fill-opacity="1"
       d="m 2786.1289,2007.2974 c -8.6094,0 -15.5898,6.8506 -15.5898,15.2999 v 319.6809 c 0,8.4608 6.9804,15.2999 15.5898,15.2999 8.6016,0 15.5899,-6.8391 15.5899,-15.2999 v -319.6809 c 0,-8.4493 -6.9883,-15.2999 -15.5899,-15.2999 z m 0,0"
       id="path32"
       style="stroke-width:0.990658" />
    <path
       fill-rule="nonzero"
       fill="#ffffff"
       fill-opacity="1"
       d="m 2790.8203,2135.7617 112.5313,-72.6523"
       id="path33" />
    <path
       fill-rule="nonzero"
       fill="#ffffff"
       fill-opacity="1"
       d="m 2895.1204,2050.8381 c -2.7802,0.019 -5.4983,0.8622 -7.8285,2.4201 l -105.3857,70.319 c -3.2485,2.1781 -5.5349,5.5965 -6.358,9.5065 -0.8158,3.9099 -0.084,8.0052 2.012,11.3631 4.3752,6.9994 13.411,9.0149 20.1824,4.4923 l 105.393,-70.3266 c 6.7713,-4.5225 8.7211,-13.8626 4.3459,-20.862 -2.7071,-4.3373 -7.3713,-6.9426 -12.3611,-6.9124 z m 0,0"
       id="path34"
       style="stroke-width:0.95214" />
    <path
       fill-rule="nonzero"
       fill="#ffffff"
       fill-opacity="1"
       d="m 2790.8203,2135.7617 -112.539,-72.6523"
       id="path35" />
    <path
       fill-rule="nonzero"
       fill="#ffffff"
       fill-opacity="1"
       d="m 2683.9176,2059.1346 c -4.9532,0.011 -9.5625,2.4979 -12.2476,6.6271 -4.3752,6.7106 -2.4364,15.6652 4.3423,20.0011 l 105.3853,67.4242 c 6.7713,4.3359 15.807,2.4036 20.1823,-4.3069 2.1071,-3.2194 2.8277,-7.1455 2.012,-10.8942 -0.8121,-3.7486 -3.0985,-7.0259 -6.358,-9.1141 l -105.3854,-67.417 c -2.3595,-1.5117 -5.1104,-2.3202 -7.9309,-2.3202 z m 0,0"
       id="path36"
       style="stroke-width:0.932284" />
    <path
       fill-rule="nonzero"
       fill="#ffffff"
       fill-opacity="1"
       d="m 2786.1289,2326.3984 c -8.6094,0 -15.5898,6.9805 -15.5898,15.5899 v 325.7422 c 0,8.6093 6.9804,15.5898 15.5898,15.5898 8.6016,0 15.5899,-6.9805 15.5899,-15.5898 v -325.7422 c 0,-8.6094 -6.9883,-15.5899 -15.5899,-15.5899 z m 0,0"
       id="path37" />
    <path
       fill-rule="nonzero"
       fill="#ffffff"
       fill-opacity="1"
       d="m 2790.8203,2548.2188 112.5313,72.6523"
       id="path38" />
    <path
       fill-rule="nonzero"
       fill="#ffffff"
       fill-opacity="1"
       d="m 2794.9568,2544.2439 c -5.2891,0 -10.2188,2.6914 -13.0898,7.1407 -4.668,7.2304 -2.5899,16.8789 4.6406,21.5507 l 112.5312,72.6485 c 7.2383,4.6718 16.8907,2.582 21.5586,-4.6485 4.6719,-7.2304 2.5899,-16.8789 -4.6406,-21.5507 l -112.5391,-72.6485 c -2.5195,-1.6328 -5.4609,-2.5 -8.4609,-2.4922 z m 0,0"
       id="path39" />
    <path
       fill-rule="nonzero"
       fill="#ffffff"
       fill-opacity="1"
       d="m 2790.8203,2548.2188 -112.539,72.6523"
       id="path40" />
    <path
       fill-rule="nonzero"
       fill="#ffffff"
       fill-opacity="1"
       d="m 2779.1037,2541.755 c -2.9688,0.019 -5.8672,0.8828 -8.3594,2.4922 l -112.5313,72.6484 c -7.2382,4.6719 -9.3086,14.3203 -4.6367,21.5508 4.668,7.2305 14.3086,9.3203 21.5469,4.6484 l 112.5312,-72.6484 c 7.2422,-4.6719 9.3086,-14.3203 4.6407,-21.5508 -2.8907,-4.4883 -7.8711,-7.1797 -13.1914,-7.1406 z m 0,0"
       id="path41" />
    <path
       fill-rule="nonzero"
       fill="#ffffff"
       fill-opacity="1"
       d="m 2506.25,2183.1797 282.2188,162.8711"
       id="path42" />
    <path
       fill-rule="nonzero"
       fill="#ffffff"
       fill-opacity="1"
       d="m 2517.8657,2175.0566 c -5.2741,0.079 -10.1131,2.9221 -12.7539,7.5006 -4.13,7.1626 -1.6692,16.3271 5.4917,20.4699 l 271.0048,156.6041 c 3.4398,1.9907 7.5286,2.5278 11.3623,1.4986 3.8299,-1.0291 7.1046,-3.5456 9.0927,-6.9898 4.13,-7.1738 1.6693,-16.3346 -5.4917,-20.4699 l -271.0048,-156.6116 c -2.3445,-1.3484 -5.004,-2.0395 -7.7011,-2.0019 z m 0,0"
       id="path43"
       style="stroke-width:0.960907" />
    <path
       fill-rule="nonzero"
       fill="#ffffff"
       fill-opacity="1"
       d="m 2612.1406,2238.8711 -6.6718,-133.7305"
       id="path44" />
    <path
       fill-rule="nonzero"
       fill="#ffffff"
       fill-opacity="1"
       d="m 2605.1406,2103.6545 c -0.1406,0 -0.3008,0.01 -0.4414,0.018 -4.1289,0.1822 -8.0078,1.8647 -10.789,4.6724 -2.7696,2.797 -4.211,6.4942 -4.0118,10.27 l 6.6719,122.3006 c 0.211,3.7793 2.0508,7.3265 5.1094,9.8699 3.0703,2.5327 7.1094,3.8472 11.2422,3.6579 8.5976,-0.3858 15.2187,-7.0801 14.7969,-14.9424 l -6.668,-122.3041 c -0.4219,-7.7088 -7.4727,-13.7065 -15.9102,-13.5421 z m 0,0"
       id="path45"
       style="stroke-width:0.956283" />
    <path
       fill-rule="nonzero"
       fill="#ffffff"
       fill-opacity="1"
       d="m 2612.1406,2238.8711 -119.1992,61.0977"
       id="path46" />
    <path
       fill-rule="nonzero"
       fill="#ffffff"
       fill-opacity="1"
       d="m 2612.8818,2232.4072 c -2.2566,0.036 -4.4618,0.578 -6.4652,1.5797 l -111.9771,56.1577 c -7.1916,3.6009 -10.039,12.2425 -6.3587,19.2792 1.7758,3.3855 4.8469,5.9382 8.5492,7.105 3.6912,1.1668 7.7127,0.8473 11.1691,-0.8796 l 111.9771,-56.1576 c 7.1954,-3.6118 10.039,-12.2426 6.3477,-19.2829 -2.5354,-4.8539 -7.6723,-7.8769 -13.2421,-7.8015 z m 0,0"
       id="path47"
       style="stroke-width:0.929148" />
    <path
       fill-rule="nonzero"
       fill="#ffffff"
       fill-opacity="1"
       d="M 3070.6914,2508.9219 2788.4688,2346.0508"
       id="path48" />
    <path
       fill-rule="nonzero"
       fill="#ffffff"
       fill-opacity="1"
       d="m 2787.7099,2330.4608 c -5.3068,0.074 -10.1611,2.8841 -12.8147,7.403 -1.9975,3.3956 -2.5364,7.4289 -1.5038,11.225 1.0328,3.7847 3.5505,7.021 7.0142,8.9783 l 272.2957,154.5719 c 3.4638,1.9537 7.5644,2.4875 11.424,1.4717 3.848,-1.0156 7.1383,-3.492 9.1359,-6.8913 1.9901,-3.3957 2.529,-7.44 1.4963,-11.236 -1.0326,-3.7849 -3.5616,-7.0211 -7.014,-8.9747 l -272.3033,-154.5646 c -2.348,-1.3382 -5.0203,-2.0203 -7.7303,-1.9833 z m 0,0"
       id="path49"
       style="stroke-width:0.9569" />
    <path
       fill-rule="nonzero"
       fill="#ffffff"
       fill-opacity="1"
       d="m 2969.4805,2445.1094 119.2109,-61.0977"
       id="path50" />
    <path
       fill-rule="nonzero"
       fill="#ffffff"
       fill-opacity="1"
       d="m 3050.916,2360.1331 c -2.3059,0.03 -4.5666,0.5875 -6.6246,1.6495 l -114.5964,58.8926 c -3.5376,1.8113 -6.2189,4.9746 -7.4395,8.7629 -1.213,3.7997 -0.8862,7.9231 0.9314,11.4705 3.7779,7.3847 12.8059,10.2956 20.1702,6.5185 l 114.6153,-58.9039 c 7.3644,-3.7771 10.2786,-12.8413 6.5006,-20.2259 -2.6062,-5.0876 -7.8563,-8.2508 -13.557,-8.1642 z m 0,0"
       id="path51"
       style="stroke-width:0.962709" />
    <path
       fill-rule="nonzero"
       fill="#ffffff"
       fill-opacity="1"
       d="m 2969.4805,2445.1094 6.6797,133.7422"
       id="path52" />
    <path
       fill-rule="nonzero"
       fill="#ffffff"
       fill-opacity="1"
       d="m 2939.2929,2420.3932 c -0.1484,0 -0.3008,0.011 -0.4492,0.011 -8.6016,0.4016 -15.2227,7.2431 -14.7891,15.2786 l 6.668,124.9954 c 0.1992,3.8589 2.039,7.4841 5.1094,10.0834 3.0703,2.5885 7.1093,3.9356 11.2421,3.7384 8.5977,-0.4015 15.2188,-7.2321 14.7891,-15.2711 l -6.6719,-124.9955 c -0.4179,-7.8784 -7.4687,-14.0081 -15.8984,-13.8401 z m 0,0"
       id="path53"
       style="stroke-width:0.966747" />
    <path
       fill-rule="nonzero"
       fill="#ffffff"
       fill-opacity="1"
       d="m 3075.3789,2183.1797 -282.2187,162.8711"
       id="path54" />
    <path
       fill-rule="nonzero"
       fill="#ffffff"
       fill-opacity="1"
       d="m 3075.5,2167.5898 c -2.7812,-0.031 -5.5117,0.6915 -7.9102,2.0821 l -282.2187,162.8789 c -7.4609,4.3008 -10.0117,13.8398 -5.7109,21.289 4.3007,7.461 13.8281,10.0196 21.289,5.711 l 282.2227,-162.8711 c 7.457,-4.3086 10.0078,-13.8399 5.707,-21.2891 -2.7578,-4.789 -7.8594,-7.7617 -13.3789,-7.8008 z m 0,0"
       id="path55" />
    <path
       fill-rule="nonzero"
       fill="#ffffff"
       fill-opacity="1"
       d="m 2969.4805,2238.8711 6.6797,-133.7305"
       id="path56" />
    <path
       fill-rule="nonzero"
       fill="#ffffff"
       fill-opacity="1"
       d="m 2973.89,2097.0059 c -8.3985,-0.1094 -15.3789,6.4414 -15.7891,14.8203 l -6.668,133.7422 c -0.4336,8.5976 6.1875,15.9179 14.7891,16.3398 4.1289,0.2071 8.168,-1.2304 11.2383,-4.0117 3.0703,-2.7695 4.9023,-6.6484 5.1094,-10.7812 l 6.6718,-133.7383 c 0.4297,-8.5899 -6.1914,-15.9102 -14.789,-16.3399 -0.1914,-0.019 -0.3711,-0.019 -0.5625,-0.031 z m 0,0"
       id="path57" />
    <path
       fill-rule="nonzero"
       fill="#ffffff"
       fill-opacity="1"
       d="m 2969.4805,2238.8711 119.2109,61.0977"
       id="path58" />
    <path
       fill-rule="nonzero"
       fill="#ffffff"
       fill-opacity="1"
       d="m 2968.7719,2230.7481 c -5.8906,-0.043 -11.3008,3.2382 -13.9922,8.4882 -3.9297,7.6602 -0.8906,17.0508 6.7696,20.9805 l 119.1992,61.1016 c 3.6836,1.8789 7.9609,2.2265 11.9023,0.957 3.9297,-1.2695 7.1992,-4.0469 9.0899,-7.7305 3.9297,-7.6562 0.8984,-17.0586 -6.7618,-20.9765 l -119.2187,-61.1016 c -2.1602,-1.1094 -4.5508,-1.6992 -6.9883,-1.7187 z m 0,0"
       id="path59" />
    <path
       fill-rule="nonzero"
       fill="#ffffff"
       fill-opacity="1"
       d="m 2510.9414,2508.9219 282.2188,-162.8711"
       id="path60" />
    <path
       fill-rule="nonzero"
       fill="#ffffff"
       fill-opacity="1"
       d="m 2794.0594,2330.4609 c -2.6415,-0.018 -5.2346,0.6754 -7.5124,2.0184 l -268.0277,157.3004 c -3.3981,1.9882 -5.8762,5.2816 -6.9038,9.1335 -1.0165,3.8632 -0.4823,7.9792 1.4839,11.435 1.9662,3.4595 5.1937,5.9796 8.9925,7.0133 3.7876,1.0337 7.8351,0.4904 11.2332,-1.4978 l 268.0165,-157.3079 c 3.4093,-1.9919 5.8874,-5.2855 6.9039,-9.1374 1.0165,-3.8632 0.486,-7.9678 -1.4802,-11.4235 -2.6229,-4.629 -7.4567,-7.4962 -12.7059,-7.534 z m 0,0"
       id="path61"
       style="stroke-width:0.957716" />
    <path
       fill-rule="nonzero"
       fill="#ffffff"
       fill-opacity="1"
       d="m 2612.1406,2445.1094 -119.1992,-61.0977"
       id="path62" />
    <path
       fill-rule="nonzero"
       fill="#ffffff"
       fill-opacity="1"
       d="m 2508.0913,2376.7183 c -5.3128,-0.045 -10.1857,2.8306 -12.6099,7.4095 -3.5289,6.6959 -0.7986,14.9147 6.0974,18.3395 l 107.3739,53.4101 c 3.3142,1.6424 7.1599,1.9498 10.7099,0.84 3.5395,-1.1029 6.4949,-3.534 8.1872,-6.7505 1.7029,-3.2165 2.0196,-6.9555 0.8726,-10.4007 -1.1435,-3.4351 -3.645,-6.3032 -6.9594,-7.9456 l -107.3738,-53.4 c -1.9457,-0.98 -4.1094,-1.4853 -6.2979,-1.5023 z m 0,0"
       id="path63"
       style="stroke-width:0.887313" />
    <path
       fill-rule="nonzero"
       fill="#ffffff"
       fill-opacity="1"
       d="m 2612.1406,2445.1094 -6.6718,133.7422"
       id="path64" />
    <path
       fill-rule="nonzero"
       fill="#ffffff"
       fill-opacity="1"
       d="m 2618.9965,2440.297 c -8.3906,-0.1114 -15.3711,5.9121 -15.789,13.6238 l -6.6719,122.9774 c -0.418,7.9092 6.2031,14.6296 14.8008,15.0247 4.1211,0.1939 8.1719,-1.1315 11.2305,-3.678 3.0703,-2.5575 4.9101,-6.1242 5.121,-9.9207 l 6.668,-122.9774 c 0.2031,-3.7966 -1.2383,-7.5106 -4.0078,-10.3338 -2.7812,-2.816 -6.6523,-4.5077 -10.7891,-4.6981 -0.1836,-0.011 -0.3711,-0.011 -0.5625,-0.018 z m 0,0"
       id="path65"
       style="stroke-width:0.958911" />
  </g>
</svg>
